<svg xmlns="http://www.w3.org/2000/svg" version="1.1" xmlns:xlink="http://www.w3.org/1999/xlink" width="512" height="512" x="0" y="0" viewBox="0 0 68 68" style="enable-background:new 0 0 512 512" xml:space="preserve" class=""><g><path fill="#70bf67" d="M22.454 25.68c1.63 2.938 1.783 6.695.044 10.586l-.008.019c-4.214-.605-7.333-2.718-8.962-5.657s-1.77-6.703-.044-10.586l.008-.019c4.227.597 7.333 2.717 8.962 5.656z" opacity="1" data-original="#70bf67"></path><path fill="#55b853" d="M23.277 34.138c-.201.7-.455 1.41-.774 2.126l-.018.02c-4.207-.6-7.323-2.717-8.953-5.658-1.63-2.941-1.776-6.705-.045-10.588l.004-.012c.776.11 1.524.273 2.224.474-.854 3.112-.517 6.073.817 8.462 1.331 2.4 3.653 4.252 6.745 5.176z" opacity="1" data-original="#55b853"></path><path fill="#70bf67" d="M41.993 22.17c2.67 2.669 3.997 6.678 3.324 11.417l-.003.022c-4.736.651-8.758-.664-11.427-3.333s-3.984-6.69-3.324-11.417l.004-.022c4.748-.664 8.758.664 11.426 3.333z" opacity="1" data-original="#70bf67"></path><path fill="#55b853" d="M45.5 31.048c0 .818-.055 1.663-.178 2.535l-.013.027c-4.728.654-8.748-.668-11.418-3.338s-3.993-6.69-3.325-11.418v-.014c.872-.122 1.73-.177 2.548-.177.04 3.624 1.322 6.717 3.502 8.884 2.18 2.18 5.26 3.46 8.883 3.501z" opacity="1" data-original="#55b853"></path><path fill="#70bf67" d="M52.787 26.085c-.926 3.23-3.475 5.996-7.456 7.517l-.018.007c-2.552-3.406-3.264-7.106-2.338-10.336s3.49-5.991 7.455-7.517l.019-.007c2.567 3.41 3.264 7.106 2.338 10.336z" opacity="1" data-original="#70bf67"></path><path fill="#55b853" d="M47.387 32.648a16.18 16.18 0 0 1-2.05.957h-.027c-2.55-3.398-3.257-7.099-2.33-10.331.926-3.233 3.486-5.997 7.455-7.518l.011-.006c.472.626.885 1.27 1.238 1.907-2.805 1.597-4.66 3.93-5.406 6.562-.756 2.639-.424 5.59 1.109 8.43z" opacity="1" data-original="#55b853"></path><path fill="#d9dcef" d="m61.092 36.289-6.195 6.195a2.608 2.608 0 0 1-3.69-.002l-6.187-6.195a2.608 2.608 0 0 1 0-3.686l6.187-6.195a2.608 2.608 0 0 1 3.69 0l6.195 6.194a2.608 2.608 0 0 1 0 3.689z" opacity="1" data-original="#d9dcef" class=""></path><path fill="#c4cae6" d="M54.425 42.482c.074.074.158.148.243.211a2.617 2.617 0 0 1-3.463-.21l-6.188-6.2a2.613 2.613 0 0 1 0-3.684l6.188-6.188a2.605 2.605 0 0 1 3.463-.21 2.32 2.32 0 0 0-.243.21l-4.297 4.298a5.277 5.277 0 0 0 0 7.476z" opacity="1" data-original="#c4cae6" class=""></path><path fill="#d9dcef" d="m35.816 34.518-6.195 6.195a2.608 2.608 0 0 1-3.69-.001l-6.186-6.195a2.608 2.608 0 0 1 0-3.686l6.187-6.195a2.608 2.608 0 0 1 3.69-.002l6.194 6.195a2.608 2.608 0 0 1 0 3.689z" opacity="1" data-original="#d9dcef" class=""></path><path fill="#c4cae6" d="M29.15 40.711c.073.074.158.148.242.211a2.617 2.617 0 0 1-3.463-.21l-6.188-6.199a2.613 2.613 0 0 1 0-3.685l6.188-6.187a2.605 2.605 0 0 1 3.463-.212 2.32 2.32 0 0 0-.243.212l-4.297 4.297a5.277 5.277 0 0 0 0 7.476z" opacity="1" data-original="#c4cae6" class=""></path><path fill="#d9dcef" d="m48.21 39.2-6.195 6.194a2.608 2.608 0 0 1-3.69 0l-6.187-6.196a2.608 2.608 0 0 1 0-3.686l6.187-6.195a2.608 2.608 0 0 1 3.69-.001l6.195 6.195a2.608 2.608 0 0 1 0 3.688z" opacity="1" data-original="#d9dcef" class=""></path><path fill="#c4cae6" d="M41.543 45.393c.074.074.158.147.243.21a2.617 2.617 0 0 1-3.463-.21l-6.188-6.198a2.613 2.613 0 0 1 0-3.686l6.188-6.187a2.605 2.605 0 0 1 3.463-.211 2.32 2.32 0 0 0-.243.211l-4.297 4.297a5.277 5.277 0 0 0 0 7.476z" opacity="1" data-original="#c4cae6" class=""></path><path fill="#d9dcef" d="M22.976 39.305 16.781 45.5a2.608 2.608 0 0 1-3.69 0l-6.186-6.196a2.608 2.608 0 0 1 0-3.686l6.187-6.195a2.608 2.608 0 0 1 3.69-.001l6.194 6.195a2.608 2.608 0 0 1 0 3.688z" opacity="1" data-original="#d9dcef" class=""></path><path fill="#c4cae6" d="M16.31 45.499c.073.074.158.148.242.211a2.617 2.617 0 0 1-3.463-.211L6.9 39.3a2.613 2.613 0 0 1 0-3.685l6.188-6.188a2.605 2.605 0 0 1 3.463-.211 2.32 2.32 0 0 0-.243.211l-4.297 4.298a5.277 5.277 0 0 0 0 7.475z" opacity="1" data-original="#c4cae6" class=""></path><path fill="#445a66" d="M22.6 65.249h22.806c5.253 0 10.261-2.466 13.274-6.77a36.682 36.682 0 0 0 6.563-18.626 2.349 2.349 0 0 0-2.344-2.498H5.101a2.349 2.349 0 0 0-2.344 2.498 36.671 36.671 0 0 0 6.572 18.63c3.013 4.301 8.019 6.766 13.27 6.766z" opacity="1" data-original="#445a66" class=""></path><path fill="#3c515b" d="M34.179 65.254H22.596c-5.277 0-10.285-2.504-13.303-6.833a36.568 36.568 0 0 1-6.54-18.562 2.35 2.35 0 0 1 2.345-2.498h9.155a36.606 36.606 0 0 0 6.623 21.06c3.018 4.329 8.026 6.833 13.303 6.833z" opacity="1" data-original="#3c515b"></path><path fill="#ef515c" d="M63.321 49.322a37.361 37.361 0 0 0 1.397-5.384H3.284a37.29 37.29 0 0 0 1.398 5.384z" opacity="1" data-original="#ef515c" class=""></path><path fill="#ee3d4e" d="M16.246 49.322a36.629 36.629 0 0 1-1.408-5.386H3.278a37.74 37.74 0 0 0 1.403 5.386z" opacity="1" data-original="#ee3d4e"></path><path d="M62.9 36.605h-1.103c1.117-1.318 1.068-3.292-.175-4.535l-6.195-6.195a3.328 3.328 0 0 0-1.669-.906c.51-3.226-.405-6.61-2.71-9.671a.779.779 0 0 0-.887-.242c-3.59 1.382-6.194 3.763-7.467 6.777-.059-.063-.11-.132-.17-.193-2.96-2.96-7.242-4.217-12.062-3.546a.778.778 0 0 0-.641.662 16.451 16.451 0 0 0 .073 5.137 3.325 3.325 0 0 0-4.493.212l-1.943 1.946c-.11-.248-.216-.497-.348-.736-1.82-3.282-5.198-5.425-9.513-6.034-.327-.05-.662.15-.799.456-1.477 3.325-1.675 6.652-.65 9.57l-5.774 5.78c-.434.435-.71.963-.853 1.518h-.42a3.101 3.101 0 0 0-3.093 3.298 37.508 37.508 0 0 0 6.706 19.011c3.108 4.436 8.299 7.084 13.885 7.084h22.807c5.59 0 10.781-2.65 13.888-7.089a37.509 37.509 0 0 0 6.698-19.006 3.101 3.101 0 0 0-3.093-3.298zm-2.338-3.474a1.858 1.858 0 0 1 0 2.628l-.847.846H49.608a3.26 3.26 0 0 0-.868-1.625l-2.52-2.519 5.518-5.524a1.858 1.858 0 0 1 2.629-.001zm-21.706-3.283c.723-.726 1.9-.73 2.628-.002l6.196 6.195c.165.165.292.357.383.564H32.299c.09-.203.204-.397.37-.563zm4.84-6.369c.855-2.984 3.148-5.386 6.49-6.814 1.867 2.683 2.58 5.592 2.074 8.33a3.33 3.33 0 0 0-1.584.881l-3.32 3.324 1.805-6.295a.75.75 0 0 0-1.442-.414l-2.552 8.902-.007.007-.702-.702c-1.138-2.401-1.429-4.891-.762-7.219zM31.24 19.51c4.109-.436 7.72.687 10.224 3.191.248.248.475.513.69.785a11.06 11.06 0 0 0-.052 4.935 3.31 3.31 0 0 0-1.491-.575l-3.78-3.78a.75.75 0 1 0-1.061 1.06l2.995 2.995a3.342 3.342 0 0 0-.97.667l-1.479 1.48-4.344-4.343c-.723-1.9-.98-4.071-.732-6.414zm-4.777 5.657a1.856 1.856 0 0 1 2.629-.001l6.165 6.164-3.649 3.652a3.259 3.259 0 0 0-.866 1.624h-6.377a3.295 3.295 0 0 0-.858-1.518l-3.437-3.438c.065-.098.12-.201.206-.288zm-12.508-4.31c3.565.641 6.337 2.468 7.844 5.186.206.37.371.757.522 1.149l-2.582 2.585-2.096-3.782a.75.75 0 1 0-1.312.727l1.48 2.67-.498-.5a3.31 3.31 0 0 0-3.927-.587c-.657-2.282-.474-4.845.57-7.448zM7.436 36.148l6.187-6.195a1.857 1.857 0 0 1 2.628 0l6.195 6.194c.136.136.24.293.325.458H7.111a1.79 1.79 0 0 1 .325-.457zM5.1 38.105H62.9c.923 0 1.658.781 1.596 1.699a35.915 35.915 0 0 1-.408 3.384H3.914a35.925 35.925 0 0 1-.409-3.384 1.597 1.597 0 0 1 1.596-1.699zm57.677 10.467H5.224l-.027-.086a36.604 36.604 0 0 1-1.004-3.798h59.615a36.719 36.719 0 0 1-.996 3.777l-.034.107zm-4.713 9.478c-2.826 4.037-7.558 6.448-12.659 6.448H22.6c-5.098 0-9.828-2.41-12.656-6.445a36.007 36.007 0 0 1-4.193-7.98h56.502a36.012 36.012 0 0 1-4.187 7.977zM53.177 5.525h1.274v1.273a.75.75 0 0 0 1.5 0V5.525h1.273a.75.75 0 0 0 0-1.5h-1.273V2.752a.75.75 0 0 0-1.5 0v1.273h-1.274a.75.75 0 0 0 0 1.5zM6.142 5.525h1.273v1.273a.75.75 0 0 0 1.5 0V5.525h1.273a.75.75 0 0 0 0-1.5H8.915V2.752a.75.75 0 0 0-1.5 0v1.273H6.142a.75.75 0 0 0 0 1.5z" fill="#000000" opacity="1" data-original="#000000" class=""></path><path d="M24.191 18.271a2.748 2.748 0 0 0 2.746-2.745 2.754 2.754 0 0 0-2.746-2.755 2.758 2.758 0 0 0-2.754 2.755 2.753 2.753 0 0 0 2.754 2.745zm0-4c.687 0 1.246.563 1.246 1.255a1.251 1.251 0 0 1-2.5 0c0-.692.563-1.255 1.254-1.255zM39.537 13.473a.75.75 0 0 0 .75-.75v-.334a.75.75 0 0 0-1.5 0v.334c0 .414.336.75.75.75zM61.856 19.418a.75.75 0 0 0 .75-.75v-.335a.75.75 0 0 0-1.5 0v.335c0 .414.336.75.75.75zM6.141 19.585a.75.75 0 0 0 .75-.75V18.5a.75.75 0 0 0-1.5 0v.335c0 .414.336.75.75.75zM27.781 6.91a.75.75 0 0 0 .75-.75v-.335a.75.75 0 0 0-1.5 0v.335c0 .414.336.75.75.75z" fill="#000000" opacity="1" data-original="#000000" class=""></path></g></svg>